<svg version="1.0" xmlns="http://www.w3.org/2000/svg" width="2666.667" height="2666.667" viewBox="0 0 2000 2000"><path d="M0 999.5V1777h2000V222H0v777.5zm1555.5-444.8c0 66.8.4 110.7.9 111.1.5.3 50.5.6 111 .6l110.1.1.1 444.2.2 444.3H222.2V666.3h222.3v222.2h110.3c73 0 110.6-.3 111.1-1 .5-.5.8-50.5.7-111l-.1-110-109.6-.1c-60.3 0-110.2-.3-111-.6-1.2-.5-1.4-17.2-1.3-110.9.1-60.7.2-110.5.3-110.6 0-.1 250-.1 555.4-.1h555.2v110.5z"/><path d="M1333.8 666.4c0 .1-.2 49.8-.4 110.6-.1 60.8-.3 110.7-.3 111-.1.3-49.9.5-110.8.5h-110.8l-.3 111-.2 111.1h110.9c98.9 0 111-.2 111.3-1.6.2-.8.3-50.7.2-110.8 0-60 .2-109.3.5-109.3.4-.1 50.1-.3 110.6-.4s110.2-.3 110.5-.4c.3 0 .5-49.9.5-110.9V666.5l-110.8-.1h-110.9zM666.6 999.5v111l110.5.1c60.7.1 110.7.2 111.2.3.4.1.7 50 .7 111v110.9h111l111-.1V1222c0-87.8-.3-110.9-1.2-111.2-.7-.2-50.7-.3-111-.3l-109.8.1V888.5H666.5l.1 111z"/></svg>